<svg width="40" height="40" viewBox="0 0 40 40" fill="none" xmlns="http://www.w3.org/2000/svg">
<path d="M35.8383 30.635H32.0367C30.5983 30.635 30.165 29.47 27.5867 26.89C25.3333 24.7184 24.3817 24.4484 23.8117 24.4484C23.0233 24.4484 22.8083 24.665 22.8083 25.75V29.17C22.8083 30.095 22.5083 30.6367 20.0917 30.6367C17.7472 30.4792 15.4736 29.7669 13.4583 28.5586C11.443 27.3503 9.74354 25.6805 8.5 23.6867C5.54731 20.0117 3.49285 15.6985 2.5 11.09C2.5 10.52 2.71667 10.0034 3.80333 10.0034H7.60333C8.58 10.0034 8.93167 10.4384 9.315 11.4434C11.16 16.8734 14.3083 21.5967 15.5867 21.5967C16.0767 21.5967 16.29 21.38 16.29 20.1584V14.565C16.1283 12.0134 14.7733 11.7984 14.7733 10.875C14.7905 10.6314 14.9019 10.4041 15.084 10.2413C15.266 10.0786 15.5043 9.99322 15.7483 10.0034H21.7217C22.5383 10.0034 22.8083 10.41 22.8083 11.3867V18.9367C22.8083 19.7517 23.1583 20.0217 23.405 20.0217C23.895 20.0217 24.2717 19.7517 25.17 18.855C27.0956 16.5067 28.6688 13.8903 29.84 11.0884C29.9599 10.7519 30.1865 10.464 30.4853 10.2684C30.7841 10.0728 31.1387 9.9803 31.495 10.005H35.2967C36.4367 10.005 36.6783 10.575 36.4367 11.3884C35.054 14.4857 33.3431 17.4259 31.3333 20.1584C30.9233 20.7834 30.76 21.1084 31.3333 21.8417C31.71 22.4117 33.0433 23.525 33.9383 24.5834C35.2417 25.8834 36.3233 27.3867 37.1417 29.0334C37.4683 30.0934 36.9233 30.635 35.8383 30.635Z" fill="black"/>
</svg>
