<svg width="40" height="40" viewBox="0 0 40 40" fill="none" xmlns="http://www.w3.org/2000/svg">
<g clip-path="url(#clip0_36530_164)">
<path d="M39.9811 4.21865C40.0192 3.98963 39.9968 3.75464 39.9162 3.53694C39.8355 3.31923 39.6995 3.12635 39.5214 2.97738C39.3433 2.82841 39.1295 2.72851 38.9009 2.68758C38.6724 2.64664 38.4372 2.66609 38.2185 2.74398L0.88513 16.0773C0.639044 16.1651 0.424161 16.3232 0.267175 16.532C0.110188 16.7409 0.0180164 16.9912 0.00210829 17.252C-0.0137998 17.5128 0.0472571 17.7725 0.177695 17.9989C0.308132 18.2252 0.502202 18.4083 0.735797 18.5253L11.4025 23.8586C11.6127 23.9639 11.847 24.0116 12.0816 23.9971C12.3162 23.9826 12.5428 23.9063 12.7385 23.776L21.5918 17.872L16.2931 24.5013C16.1778 24.6456 16.0938 24.8123 16.0462 24.9908C15.9987 25.1693 15.9888 25.3557 16.0172 25.5382C16.0455 25.7207 16.1114 25.8954 16.2108 26.0511C16.3102 26.2068 16.4408 26.3401 16.5945 26.4427L32.5945 37.1093C32.7797 37.2325 32.9929 37.3074 33.2145 37.3271C33.4361 37.3468 33.6592 37.3108 33.8633 37.2222C34.0674 37.1337 34.2461 36.9955 34.3831 36.8202C34.5202 36.6449 34.6111 36.4381 34.6478 36.2187L39.9811 4.21865Z" fill="black"/>
</g>
<defs>
<clipPath id="clip0_36530_164">
<rect width="40" height="40" fill="white"/>
</clipPath>
</defs>
</svg>
